<svg 
	id="svg" 
	xmlns="http://www.w3.org/2000/svg" 
	xmlns:xlink="http://www.w3.org/1999/xlink" 
	width="400" 
	height="413" 
	viewBox="0, 0, 400,413">
	<g id="svgg">
		<path id="path0" d="M21.750 0.671 C 19.171 1.715,16.257 3.234,16.083 3.625 C 15.992 3.831,15.535 4.000,15.069 4.000 C 14.602 4.000,13.896 4.450,13.500 5.000 C 13.104 5.550,12.506 6.000,12.172 6.000 C 11.381 6.000,6.000 11.381,6.000 12.172 C 6.000 12.506,5.550 13.104,5.000 13.500 C 4.450 13.896,4.000 14.602,4.000 15.069 C 4.000 15.535,3.831 15.992,3.625 16.083 C 3.419 16.175,2.575 17.600,1.750 19.250 L 0.250 22.250 0.250 165.250 C 0.250 304.397,0.275 308.297,1.193 310.000 C 1.711 310.962,2.697 312.837,3.383 314.166 C 4.069 315.494,4.938 316.700,5.315 316.844 C 5.692 316.989,6.000 317.523,6.000 318.032 C 6.000 319.073,11.315 324.500,12.334 324.500 C 12.696 324.500,13.273 324.950,13.616 325.500 C 13.960 326.050,14.636 326.500,15.120 326.500 C 15.604 326.500,16.000 326.701,16.000 326.946 C 16.000 327.191,16.619 327.546,17.375 327.735 C 18.131 327.923,19.120 328.412,19.573 328.820 C 21.325 330.398,28.400 330.480,162.250 330.473 C 292.044 330.467,307.386 330.314,308.686 329.014 C 308.969 328.731,309.718 328.500,310.350 328.500 C 310.983 328.500,311.500 328.275,311.500 328.000 C 311.500 327.725,311.838 327.500,312.250 327.500 C 312.663 327.500,313.450 327.050,314.000 326.500 C 314.550 325.950,315.351 325.500,315.780 325.500 C 316.208 325.500,316.418 325.272,316.246 324.994 C 316.073 324.713,316.615 324.352,317.467 324.182 C 318.310 324.013,319.000 323.705,319.000 323.496 C 319.000 322.966,323.021 319.000,323.559 319.000 C 323.801 319.000,324.000 318.596,324.000 318.102 C 324.000 317.219,324.895 315.801,326.625 313.941 C 327.106 313.423,327.500 312.662,327.500 312.250 C 327.500 311.837,327.725 311.500,328.000 311.500 C 328.275 311.500,328.500 310.983,328.500 310.350 C 328.500 309.718,328.735 308.965,329.023 308.677 C 329.310 308.390,329.681 306.489,329.846 304.452 C 330.034 302.146,330.403 300.599,330.824 300.350 C 331.836 299.751,331.835 30.000,330.822 30.000 C 330.336 30.000,330.063 28.920,329.856 26.184 C 329.697 24.084,329.327 22.127,329.034 21.834 C 328.740 21.540,328.500 20.783,328.500 20.150 C 328.500 19.518,328.275 19.000,328.000 19.000 C 327.725 19.000,327.500 18.550,327.500 18.000 C 327.500 17.450,327.270 17.000,326.989 17.000 C 326.708 17.000,326.207 16.381,325.875 15.625 C 325.543 14.869,324.985 14.070,324.636 13.850 C 324.286 13.630,324.000 13.011,324.000 12.475 C 324.000 11.939,323.663 11.500,323.250 11.500 C 322.837 11.500,322.500 11.299,322.500 11.053 C 322.500 10.348,319.667 7.499,319.316 7.851 C 319.142 8.025,319.000 7.792,319.000 7.333 C 319.000 6.840,318.602 6.500,318.025 6.500 C 317.489 6.500,316.870 6.214,316.650 5.864 C 316.430 5.515,315.631 4.957,314.875 4.625 C 314.119 4.293,313.500 3.792,313.500 3.511 C 313.500 3.230,313.074 3.000,312.553 3.000 C 312.033 3.000,311.482 2.676,311.330 2.279 C 311.178 1.883,310.648 1.562,310.152 1.567 C 309.656 1.571,308.350 1.286,307.250 0.933 C 304.391 0.015,24.008 -0.242,21.750 0.671 M320.500 0.750 C 320.500 1.251,321.001 1.500,322.007 1.500 C 323.525 1.500,324.969 2.118,326.677 3.500 C 327.188 3.913,327.750 4.221,327.927 4.185 C 328.105 4.149,328.771 4.318,329.408 4.560 C 330.044 4.802,330.775 5.000,331.033 5.000 C 331.290 5.000,331.500 5.176,331.500 5.392 C 331.500 5.608,332.119 6.154,332.875 6.606 C 334.867 7.796,339.631 12.519,340.459 14.125 C 340.850 14.881,341.356 15.500,341.584 15.500 C 341.813 15.500,342.000 15.710,342.000 15.967 C 342.000 16.225,342.260 17.068,342.577 17.842 C 342.894 18.617,343.219 19.583,343.300 19.991 C 343.380 20.398,343.683 20.811,343.973 20.908 C 344.263 21.004,344.500 21.383,344.500 21.750 C 344.500 22.117,344.781 22.510,345.125 22.625 C 346.045 22.932,346.045 307.568,345.125 307.875 C 344.781 307.990,344.500 308.306,344.500 308.577 C 344.500 308.849,344.160 309.411,343.745 309.826 C 343.330 310.241,343.119 310.787,343.275 311.040 C 343.431 311.293,343.349 311.500,343.092 311.500 C 342.835 311.500,342.491 312.168,342.328 312.984 C 342.000 314.627,341.865 314.810,337.442 319.625 C 335.737 321.481,334.064 323.000,333.724 323.000 C 333.385 323.000,332.998 323.284,332.865 323.631 C 332.620 324.269,328.337 326.621,327.050 326.823 C 326.665 326.884,326.183 327.204,325.978 327.535 C 325.774 327.866,324.458 328.247,323.053 328.382 C 320.978 328.581,320.500 328.803,320.500 329.564 C 320.500 331.059,342.155 330.545,343.686 329.014 C 343.969 328.731,344.718 328.500,345.350 328.500 C 345.983 328.500,346.500 328.275,346.500 328.000 C 346.500 327.725,346.950 327.500,347.500 327.500 C 348.050 327.500,348.500 327.270,348.500 326.989 C 348.500 326.708,349.119 326.207,349.875 325.875 C 350.631 325.543,351.430 324.985,351.650 324.636 C 351.870 324.286,352.489 324.000,353.025 324.000 C 353.561 324.000,354.000 323.778,354.000 323.506 C 354.000 322.762,355.637 321.000,356.327 321.000 C 356.660 321.000,357.075 320.550,357.250 320.000 C 357.425 319.450,357.914 319.000,358.337 319.000 C 358.793 319.000,358.997 318.713,358.837 318.297 C 358.689 317.910,358.982 317.219,359.489 316.760 C 359.995 316.302,360.547 315.380,360.715 314.713 C 360.882 314.046,361.338 313.500,361.729 313.500 C 362.187 313.500,362.558 312.702,362.776 311.250 C 362.962 310.013,363.277 309.000,363.478 309.000 C 364.054 309.000,365.000 305.332,365.000 303.096 C 365.000 301.976,365.225 300.920,365.500 300.750 C 366.137 300.356,366.198 30.181,365.561 29.787 C 365.319 29.638,365.027 28.219,364.911 26.633 C 364.796 25.047,364.325 22.996,363.864 22.075 C 363.403 21.153,362.883 19.634,362.708 18.700 C 362.532 17.765,362.091 17.000,361.728 17.000 C 361.365 17.000,360.909 16.494,360.715 15.875 C 360.521 15.256,359.946 14.217,359.438 13.566 C 358.930 12.915,358.636 12.184,358.786 11.941 C 358.936 11.699,358.708 11.500,358.280 11.500 C 357.851 11.500,357.500 11.311,357.500 11.080 C 357.500 10.375,353.470 6.500,352.736 6.500 C 352.359 6.500,351.870 6.214,351.650 5.864 C 351.430 5.515,350.631 4.957,349.875 4.625 C 349.119 4.293,348.500 3.792,348.500 3.511 C 348.500 3.230,348.069 3.000,347.542 3.000 C 347.015 3.000,346.497 2.741,346.391 2.424 C 346.286 2.107,345.757 1.815,345.216 1.775 C 344.675 1.735,343.969 1.540,343.648 1.341 C 341.537 0.037,320.500 -0.501,320.500 0.750 M355.500 0.750 C 355.500 1.233,355.984 1.500,356.860 1.500 C 358.339 1.500,367.500 5.864,367.500 6.568 C 367.500 6.806,367.793 7.000,368.151 7.000 C 368.761 7.000,372.328 10.244,374.000 12.320 C 375.909 14.689,378.500 19.264,378.500 20.265 C 378.500 20.669,378.738 21.000,379.030 21.000 C 379.321 21.000,379.429 21.211,379.269 21.469 C 379.109 21.727,379.377 22.162,379.864 22.434 C 381.245 23.207,381.245 307.293,379.864 308.066 C 379.377 308.338,379.109 308.773,379.269 309.031 C 379.429 309.289,379.321 309.500,379.030 309.500 C 378.738 309.500,378.500 309.931,378.500 310.458 C 378.500 310.985,378.331 311.492,378.125 311.583 C 377.919 311.675,377.210 312.823,376.551 314.134 C 375.891 315.446,374.934 317.021,374.425 317.634 C 372.156 320.366,369.190 323.000,368.382 323.000 C 367.897 323.000,367.500 323.313,367.500 323.697 C 367.500 324.366,366.152 325.244,365.375 325.079 C 365.169 325.036,365.000 325.225,365.000 325.500 C 365.000 325.775,364.659 326.000,364.243 326.000 C 363.400 326.000,361.425 327.009,360.928 327.693 C 360.751 327.937,359.458 328.247,358.053 328.382 C 355.978 328.581,355.500 328.803,355.500 329.564 C 355.500 331.059,377.155 330.545,378.686 329.014 C 378.969 328.731,379.718 328.500,380.350 328.500 C 380.983 328.500,381.500 328.275,381.500 328.000 C 381.500 327.725,381.837 327.500,382.250 327.500 C 382.663 327.500,383.000 327.297,383.000 327.049 C 383.000 326.801,383.675 326.363,384.500 326.075 C 385.325 325.787,386.000 325.330,386.000 325.060 C 386.000 324.789,386.506 324.415,387.125 324.228 C 387.744 324.041,389.324 322.778,390.636 321.421 C 391.948 320.064,393.209 319.070,393.438 319.212 C 393.668 319.354,393.753 318.934,393.628 318.279 C 393.466 317.433,393.704 316.926,394.450 316.527 C 395.028 316.218,395.500 315.502,395.500 314.936 C 395.500 314.327,395.909 313.800,396.500 313.645 C 397.053 313.500,397.500 312.963,397.500 312.442 C 397.500 311.924,397.699 311.500,397.942 311.500 C 398.186 311.500,398.539 310.262,398.728 308.750 C 398.917 307.238,399.281 306.000,399.536 306.000 C 399.820 306.000,400.000 251.475,400.000 165.250 C 400.000 83.970,399.813 24.500,399.558 24.500 C 399.314 24.500,398.961 23.263,398.772 21.750 C 398.583 20.238,398.219 19.000,397.964 19.000 C 397.709 19.000,397.500 18.550,397.500 18.000 C 397.500 17.437,397.167 17.000,396.738 17.000 C 396.295 17.000,395.853 16.388,395.684 15.544 C 395.514 14.696,394.998 13.985,394.446 13.841 C 393.926 13.705,393.500 13.217,393.500 12.758 C 393.500 12.298,392.600 11.003,391.500 9.881 C 390.400 8.759,389.500 7.669,389.500 7.459 C 389.500 7.249,388.712 6.818,387.750 6.500 C 386.788 6.182,386.000 5.709,386.000 5.449 C 386.000 5.188,385.494 4.756,384.875 4.489 C 383.378 3.842,381.827 2.856,381.421 2.295 C 381.240 2.044,380.674 1.809,380.162 1.771 C 379.651 1.733,378.962 1.536,378.632 1.332 C 376.562 0.052,355.500 -0.477,355.500 0.750 M176.748 107.497 C 178.397 107.767,179.822 108.215,179.915 108.494 C 180.007 108.772,181.302 109.000,182.792 109.000 C 184.452 109.000,185.500 109.216,185.500 109.558 C 185.500 109.865,185.900 110.012,186.390 109.884 C 186.879 109.756,187.563 109.955,187.909 110.326 C 188.256 110.697,189.206 111.000,190.020 111.000 C 190.834 111.000,191.500 111.200,191.500 111.444 C 191.500 111.689,192.266 112.032,193.202 112.208 C 194.138 112.384,195.043 112.891,195.213 113.335 C 195.384 113.780,195.650 114.017,195.804 113.862 C 196.286 113.380,199.168 114.592,201.072 116.078 C 202.074 116.860,203.124 117.500,203.404 117.500 C 204.528 117.500,212.576 124.973,212.166 125.635 C 211.990 125.921,212.079 126.010,212.365 125.834 C 213.158 125.343,219.500 132.643,219.500 134.046 C 219.500 134.504,219.850 135.168,220.279 135.524 C 220.707 135.880,221.391 136.968,221.798 137.943 C 222.206 138.917,222.763 139.854,223.037 140.023 C 223.311 140.192,223.672 141.213,223.839 142.290 C 224.005 143.368,224.560 144.653,225.071 145.144 C 225.582 145.636,226.000 146.705,226.000 147.519 C 226.000 148.334,226.196 149.000,226.435 149.000 C 227.676 149.000,228.453 170.542,228.811 214.875 C 229.024 241.349,229.020 241.500,228.013 241.500 C 227.333 241.500,227.000 241.829,227.000 242.500 C 227.000 243.050,226.719 243.505,226.375 243.511 C 226.031 243.517,225.188 243.962,224.500 244.500 C 223.194 245.522,219.500 245.891,219.500 245.000 C 219.500 244.725,219.162 244.500,218.750 244.500 C 218.338 244.500,217.550 244.050,217.000 243.500 C 216.450 242.950,215.689 242.500,215.308 242.500 C 214.565 242.500,213.842 240.801,213.979 239.375 C 214.025 238.894,213.824 238.500,213.531 238.500 C 213.161 238.500,213.000 226.418,213.000 198.525 C 213.000 165.368,212.884 158.481,212.321 158.150 C 211.947 157.930,211.491 156.625,211.307 155.250 C 210.466 148.976,210.352 148.500,209.685 148.500 C 209.271 148.500,209.000 147.956,209.000 147.123 C 209.000 146.250,208.466 145.243,207.538 144.367 C 206.734 143.608,205.929 142.316,205.749 141.494 C 205.568 140.673,204.964 139.681,204.406 139.291 C 203.793 138.861,203.542 138.336,203.773 137.963 C 204.019 137.564,203.948 137.473,203.572 137.706 C 203.220 137.923,201.653 136.720,199.620 134.672 C 196.248 131.276,194.492 130.000,193.193 130.000 C 192.812 130.000,192.500 129.775,192.500 129.500 C 192.500 129.225,192.155 129.000,191.734 129.000 C 191.313 129.000,190.848 128.685,190.700 128.299 C 190.552 127.914,189.681 127.458,188.764 127.286 C 187.847 127.114,186.969 126.641,186.814 126.236 C 186.650 125.810,185.887 125.500,185.000 125.500 C 184.157 125.500,182.631 125.150,181.609 124.721 C 180.534 124.271,178.640 123.993,177.117 124.063 C 175.597 124.132,174.233 123.933,173.892 123.592 C 172.984 122.684,157.500 122.764,157.500 123.677 C 157.500 124.187,156.888 124.294,155.012 124.114 C 153.323 123.952,151.973 124.136,150.811 124.688 C 149.869 125.134,148.413 125.500,147.574 125.500 C 146.677 125.500,145.860 125.840,145.588 126.325 C 145.297 126.845,144.748 127.051,144.101 126.881 C 143.323 126.678,143.147 126.801,143.372 127.389 C 143.584 127.940,143.479 128.046,143.009 127.756 C 142.588 127.496,142.103 127.682,141.674 128.269 C 141.303 128.776,141.000 128.996,141.000 128.758 C 141.000 128.520,140.494 128.789,139.875 129.355 C 138.778 130.360,136.626 131.298,135.875 131.099 C 135.669 131.045,135.500 131.343,135.500 131.762 C 135.500 132.207,134.885 132.648,134.028 132.819 C 132.903 133.044,132.519 133.425,132.403 134.432 C 132.295 135.359,131.916 135.797,131.125 135.910 C 130.402 136.012,130.000 136.414,130.000 137.035 C 130.000 137.717,129.652 138.000,128.813 138.000 C 127.885 138.000,127.557 138.339,127.316 139.546 C 127.122 140.513,126.631 141.190,126.003 141.354 C 125.449 141.499,125.000 142.036,125.000 142.554 C 125.000 143.070,124.550 143.773,124.000 144.116 C 123.392 144.495,123.000 145.282,123.000 146.120 C 123.000 146.879,122.751 147.500,122.447 147.500 C 122.142 147.500,122.032 147.863,122.202 148.306 C 122.415 148.861,122.294 149.028,121.812 148.843 C 121.334 148.659,121.186 148.855,121.345 149.463 C 121.473 149.951,121.166 150.762,120.664 151.264 C 119.796 152.132,119.737 154.441,119.500 197.000 C 119.230 245.331,119.337 243.500,116.786 243.500 C 116.354 243.500,116.000 243.725,116.000 244.000 C 116.000 244.275,115.438 244.500,114.750 244.500 C 114.063 244.500,113.500 244.725,113.500 245.000 C 113.500 245.275,112.600 245.500,111.500 245.500 C 110.400 245.500,109.500 245.275,109.500 245.000 C 109.500 244.725,109.231 244.500,108.902 244.500 C 107.785 244.500,104.500 241.868,104.500 240.974 C 104.500 240.484,104.219 239.990,103.875 239.875 C 103.379 239.710,103.250 226.739,103.250 177.250 C 103.250 127.761,103.379 114.790,103.875 114.625 C 104.219 114.510,104.500 113.856,104.500 113.170 C 104.500 110.316,106.966 108.944,111.803 109.105 L 116.144 109.250 117.663 111.129 C 119.162 112.984,119.185 113.098,119.406 120.045 C 119.680 128.612,119.803 128.718,124.335 124.295 C 126.192 122.483,127.902 121.000,128.134 121.000 C 128.366 121.000,129.162 120.351,129.903 119.557 C 130.644 118.764,131.756 117.961,132.375 117.774 C 132.994 117.586,133.500 117.250,133.500 117.027 C 133.500 116.804,134.231 116.322,135.125 115.957 C 136.019 115.591,137.047 115.001,137.411 114.646 C 137.774 114.291,138.365 114.000,138.724 114.000 C 139.084 114.000,139.639 113.685,139.959 113.299 C 140.279 112.914,141.148 112.446,141.891 112.259 C 142.633 112.073,143.390 111.679,143.572 111.383 C 143.755 111.087,144.646 110.866,145.552 110.892 C 146.653 110.923,147.424 110.617,147.878 109.969 C 148.387 109.242,149.148 109.000,150.928 109.000 C 152.233 109.000,153.581 108.719,153.924 108.375 C 154.981 107.318,171.722 106.674,176.748 107.497 M16.000 345.438 C 16.000 345.678,15.323 346.010,14.495 346.176 C 13.106 346.454,10.735 347.861,9.098 349.380 C 8.725 349.726,8.178 349.860,7.882 349.677 C 7.542 349.467,7.493 349.584,7.749 349.999 C 7.994 350.395,7.860 350.868,7.408 351.201 C 6.998 351.503,6.520 352.087,6.346 352.500 C 6.173 352.913,6.080 351.675,6.140 349.750 L 6.250 346.250 3.500 346.250 L 0.750 346.250 0.750 369.250 L 0.750 392.250 3.500 392.250 L 6.250 392.250 6.250 376.500 C 6.250 360.758,6.251 360.749,7.479 358.345 C 8.910 355.544,12.561 351.500,13.659 351.500 C 14.076 351.500,14.510 351.219,14.625 350.875 C 14.948 349.905,24.985 350.014,26.185 351.000 C 28.595 352.979,30.024 354.875,30.320 356.484 C 30.498 357.455,30.893 358.410,31.197 358.607 C 31.583 358.855,31.750 363.998,31.750 375.607 L 31.750 392.250 34.500 392.250 L 37.250 392.250 37.112 375.535 C 37.036 366.342,36.780 358.580,36.543 358.285 C 36.307 357.991,35.955 356.794,35.763 355.625 C 35.570 354.456,35.194 353.500,34.927 353.500 C 34.659 353.500,34.580 353.275,34.750 353.000 C 34.920 352.725,34.821 352.500,34.530 352.500 C 34.238 352.500,34.000 352.193,34.000 351.818 C 34.000 350.717,29.155 346.506,27.510 346.177 C 26.680 346.011,26.000 345.678,26.000 345.438 C 26.000 345.197,23.750 345.000,21.000 345.000 C 18.250 345.000,16.000 345.197,16.000 345.438 M68.500 345.443 C 68.500 345.687,67.487 346.038,66.250 346.224 C 65.013 346.409,64.000 346.755,64.000 346.991 C 64.000 347.227,63.343 347.565,62.541 347.741 C 59.935 348.313,59.118 349.466,58.925 352.842 C 58.741 356.065,59.101 356.281,61.347 354.296 C 62.995 352.840,63.416 352.583,63.697 352.863 C 63.864 353.030,64.000 352.929,64.000 352.638 C 64.000 352.347,64.616 351.954,65.370 351.765 C 66.123 351.575,66.890 351.178,67.074 350.880 C 67.452 350.269,74.815 349.720,76.607 350.169 C 80.482 351.142,83.129 356.298,83.485 363.565 C 83.493 363.739,80.856 364.147,77.625 364.474 C 74.394 364.800,71.300 365.260,70.750 365.497 C 70.200 365.733,68.231 366.194,66.375 366.520 C 64.519 366.846,63.000 367.298,63.000 367.523 C 63.000 367.748,62.526 368.083,61.947 368.267 C 59.677 368.987,56.262 372.532,55.707 374.742 C 55.534 375.434,55.191 376.000,54.946 376.000 C 54.701 376.000,54.500 377.913,54.500 380.250 C 54.500 382.587,54.697 384.500,54.938 384.500 C 55.178 384.500,55.499 385.119,55.652 385.875 C 56.011 387.660,60.224 391.860,62.061 392.263 C 62.846 392.436,63.617 392.785,63.774 393.038 C 64.138 393.627,72.642 393.647,73.275 393.060 C 73.536 392.819,74.609 392.346,75.658 392.011 C 77.552 391.405,80.184 389.164,82.410 386.262 L 83.569 384.750 83.410 388.500 L 83.250 392.250 86.000 392.250 L 88.750 392.250 88.500 373.606 C 88.330 360.896,88.076 354.849,87.702 354.606 C 87.401 354.410,86.998 353.611,86.806 352.830 C 86.332 350.894,81.903 346.556,80.014 346.178 C 79.181 346.011,78.500 345.678,78.500 345.438 C 78.500 345.197,76.250 345.000,73.500 345.000 C 70.750 345.000,68.500 345.199,68.500 345.443 M170.000 345.444 C 170.000 345.689,169.206 346.038,168.236 346.220 C 166.250 346.592,163.456 348.115,161.313 349.991 C 160.523 350.684,159.679 351.194,159.438 351.125 C 159.197 351.056,159.050 351.169,159.111 351.375 C 159.220 351.742,157.579 354.507,156.959 355.000 C 156.786 355.137,156.358 356.150,156.007 357.250 C 155.657 358.350,155.118 359.566,154.810 359.952 C 154.446 360.408,154.250 363.657,154.250 369.249 C 154.250 374.841,154.446 378.091,154.810 378.548 C 155.118 378.934,155.658 380.144,156.010 381.236 C 156.363 382.329,156.898 383.496,157.200 383.831 C 157.503 384.166,158.298 385.199,158.968 386.127 C 159.638 387.055,160.945 388.362,161.873 389.032 C 162.801 389.702,163.848 390.511,164.200 390.831 C 164.552 391.151,165.833 391.695,167.045 392.040 C 168.258 392.386,169.464 392.856,169.725 393.084 C 170.338 393.621,181.000 393.630,181.000 393.095 C 181.000 392.872,182.125 392.401,183.500 392.048 C 184.875 391.696,186.000 391.203,186.000 390.954 C 186.000 390.704,186.292 390.500,186.648 390.500 C 187.482 390.500,192.392 385.627,192.775 384.420 C 192.936 383.914,193.242 383.500,193.455 383.500 C 193.667 383.500,194.127 382.544,194.476 381.375 C 194.825 380.206,195.367 379.089,195.680 378.893 C 196.465 378.402,196.474 360.435,195.690 359.452 C 195.382 359.066,194.844 357.863,194.494 356.778 C 193.797 354.617,193.691 354.458,190.671 351.077 C 188.676 348.844,184.018 346.000,182.355 346.000 C 181.917 346.000,181.420 345.775,181.250 345.500 C 180.866 344.879,170.000 344.825,170.000 345.444 M229.500 345.444 C 229.500 345.689,228.735 346.032,227.800 346.208 C 226.865 346.383,225.825 346.858,225.489 347.263 C 225.153 347.668,224.654 348.000,224.380 348.000 C 223.714 348.000,220.000 351.741,220.000 352.412 C 220.000 352.703,219.831 353.046,219.625 353.174 C 219.419 353.303,219.324 351.875,219.414 350.002 L 219.578 346.597 216.914 346.424 L 214.250 346.250 214.250 369.250 L 214.250 392.250 217.000 392.250 L 219.750 392.250 219.750 376.500 L 219.750 360.750 221.153 358.081 C 222.808 354.931,225.218 352.155,226.695 351.694 C 227.275 351.513,227.900 351.131,228.084 350.845 C 228.839 349.667,236.739 349.799,239.206 351.032 C 241.567 352.211,244.000 355.425,244.000 357.364 C 244.000 357.879,244.281 358.581,244.625 358.925 C 245.100 359.399,245.250 363.486,245.250 375.901 L 245.250 392.252 247.750 392.001 L 250.250 391.750 250.219 375.500 C 250.188 358.993,249.806 354.734,248.214 353.143 C 247.821 352.750,247.500 352.128,247.500 351.761 C 247.500 350.729,242.499 346.475,240.913 346.158 C 240.136 346.002,239.500 345.678,239.500 345.438 C 239.500 345.197,237.250 345.000,234.500 345.000 C 231.750 345.000,229.500 345.200,229.500 345.444 M282.000 345.436 C 282.000 345.676,281.156 346.008,280.125 346.173 C 279.094 346.339,277.012 347.100,275.500 347.863 L 272.750 349.252 272.601 352.376 C 272.417 356.249,272.512 356.264,276.386 352.980 C 276.735 352.683,277.748 352.192,278.636 351.888 C 279.524 351.585,280.398 351.112,280.579 350.838 C 280.962 350.258,288.384 349.737,290.107 350.169 C 292.460 350.760,295.500 354.287,295.500 356.425 C 295.500 356.971,295.691 357.492,295.923 357.583 C 296.156 357.675,296.487 359.125,296.659 360.806 L 296.970 363.862 291.967 364.431 C 289.216 364.744,286.297 365.000,285.482 365.000 C 284.667 365.000,284.000 365.181,284.000 365.402 C 284.000 365.624,282.313 366.089,280.250 366.435 C 278.188 366.782,276.500 367.251,276.500 367.478 C 276.500 367.706,275.987 368.020,275.360 368.178 C 273.720 368.589,269.606 372.881,269.235 374.567 C 269.062 375.355,268.713 376.000,268.460 376.000 C 267.553 376.000,267.939 383.686,268.952 385.781 C 270.201 388.365,273.780 391.872,275.570 392.265 C 276.350 392.437,277.117 392.785,277.274 393.038 C 277.638 393.627,286.142 393.647,286.775 393.060 C 287.036 392.819,288.038 392.368,289.000 392.059 C 290.856 391.464,293.986 388.852,295.910 386.293 L 297.069 384.750 296.910 388.500 L 296.750 392.250 299.500 392.250 L 302.250 392.250 302.125 375.000 C 302.055 365.307,301.791 357.312,301.521 356.750 C 301.258 356.200,300.799 354.794,300.502 353.625 C 300.205 352.456,299.745 351.500,299.481 351.500 C 299.216 351.500,299.000 351.213,299.000 350.861 C 299.000 350.510,298.540 349.829,297.979 349.348 C 297.417 348.867,297.114 348.220,297.306 347.909 C 297.525 347.554,297.429 347.485,297.046 347.722 C 296.711 347.929,296.057 347.756,295.593 347.338 C 295.130 346.920,294.131 346.423,293.375 346.235 C 292.619 346.046,292.000 345.691,292.000 345.446 C 292.000 345.201,289.750 345.000,287.000 345.000 C 284.250 345.000,282.000 345.196,282.000 345.436 M383.500 345.444 C 383.500 345.689,382.749 346.030,381.831 346.202 C 380.914 346.374,379.229 347.314,378.088 348.291 C 376.900 349.308,375.763 349.913,375.429 349.706 C 375.078 349.489,374.979 349.562,375.182 349.890 C 375.367 350.189,375.036 351.359,374.448 352.488 C 373.180 354.921,373.233 362.120,374.531 363.737 C 375.435 364.862,378.639 368.075,379.563 368.782 C 380.527 369.519,386.891 372.500,387.501 372.500 C 387.776 372.500,388.000 372.725,388.000 373.000 C 388.000 373.275,388.292 373.500,388.648 373.500 C 390.250 373.500,394.000 377.133,394.000 378.686 C 394.000 379.363,394.256 380.002,394.568 380.106 C 394.982 380.244,394.989 380.561,394.595 381.273 C 394.298 381.810,393.920 383.091,393.756 384.119 C 393.561 385.340,393.075 386.189,392.353 386.569 C 391.747 386.888,391.089 387.397,390.893 387.700 C 390.389 388.477,379.584 388.445,379.102 387.665 C 378.903 387.343,378.140 386.929,377.407 386.745 C 376.674 386.561,375.685 385.980,375.209 385.455 C 373.825 383.925,373.500 384.311,373.500 387.488 C 373.500 390.798,374.202 391.665,377.401 392.305 C 378.281 392.481,379.000 392.822,379.000 393.063 C 379.000 393.303,381.475 393.500,384.500 393.500 C 387.525 393.500,390.000 393.300,390.000 393.056 C 390.000 392.811,390.802 392.461,391.781 392.277 C 397.474 391.209,401.459 382.106,399.015 375.750 C 398.390 374.124,394.219 370.000,393.199 370.000 C 392.854 370.000,392.274 369.719,391.911 369.375 C 391.074 368.584,385.841 366.000,385.075 366.000 C 384.759 366.000,384.500 365.799,384.500 365.554 C 384.500 365.309,383.988 364.980,383.361 364.823 C 378.562 363.618,377.301 355.814,381.296 352.044 C 383.789 349.692,389.726 349.167,393.644 350.952 C 394.910 351.528,396.164 352.000,396.431 352.000 C 396.698 352.000,397.005 352.265,397.113 352.589 C 397.556 353.919,398.500 352.283,398.500 350.185 C 398.500 347.532,397.711 346.553,395.255 346.154 C 394.290 345.997,393.500 345.674,393.500 345.435 C 393.500 345.196,391.250 345.000,388.500 345.000 C 385.750 345.000,383.500 345.200,383.500 345.444 M136.311 346.599 C 136.627 347.110,135.449 351.500,134.996 351.500 C 134.785 351.500,134.464 352.288,134.283 353.250 C 134.102 354.212,133.776 355.000,133.557 355.000 C 133.339 355.000,132.863 356.238,132.500 357.750 C 132.137 359.262,131.669 360.500,131.460 360.500 C 131.251 360.500,130.925 361.231,130.737 362.125 C 130.549 363.019,130.097 364.425,129.733 365.250 C 127.538 370.231,127.079 371.411,126.767 372.875 C 126.576 373.769,126.242 374.500,126.023 374.500 C 125.804 374.500,125.490 375.175,125.325 376.000 C 125.160 376.825,124.569 378.500,124.013 379.723 C 123.456 380.945,123.000 382.199,123.000 382.508 C 123.000 384.403,121.569 384.390,121.249 382.493 C 121.064 381.397,120.753 380.500,120.559 380.500 C 120.365 380.500,119.955 379.656,119.648 378.625 C 118.899 376.110,117.610 372.587,116.766 370.750 C 116.387 369.925,115.913 368.575,115.712 367.750 C 115.511 366.925,115.203 366.137,115.028 366.000 C 114.853 365.863,114.454 364.962,114.140 364.000 C 113.186 361.067,111.991 357.830,111.280 356.250 C 110.909 355.425,110.451 354.019,110.263 353.125 C 110.075 352.231,109.713 351.500,109.460 351.500 C 109.207 351.500,109.000 351.140,109.000 350.701 C 109.000 348.095,107.454 346.500,104.927 346.500 C 102.562 346.500,100.773 347.841,102.410 348.387 C 102.735 348.495,103.000 348.914,103.000 349.319 C 103.000 349.724,103.456 351.055,104.013 352.277 C 104.569 353.500,105.160 355.175,105.325 356.000 C 105.490 356.825,105.804 357.500,106.023 357.500 C 106.242 357.500,106.580 358.231,106.774 359.125 C 106.969 360.019,107.437 361.194,107.814 361.736 C 108.191 362.279,108.500 363.022,108.500 363.389 C 108.500 363.755,108.956 365.055,109.513 366.277 C 110.069 367.500,110.660 369.175,110.825 370.000 C 110.990 370.825,111.304 371.500,111.523 371.500 C 111.742 371.500,112.080 372.231,112.274 373.125 C 112.469 374.019,112.937 375.194,113.314 375.736 C 113.691 376.279,114.000 377.022,114.000 377.389 C 114.000 377.755,114.456 379.055,115.013 380.277 C 115.569 381.500,116.160 383.175,116.325 384.000 C 116.490 384.825,116.804 385.500,117.023 385.500 C 117.242 385.500,117.569 386.177,117.751 387.005 C 117.933 387.833,118.416 389.180,118.824 389.999 C 119.233 390.817,119.460 391.659,119.330 391.869 C 119.200 392.078,120.307 392.173,121.790 392.079 C 124.446 391.911,124.496 391.878,125.073 389.954 C 125.395 388.879,125.820 388.000,126.017 388.000 C 126.214 388.000,126.510 387.325,126.675 386.500 C 126.840 385.675,127.431 384.000,127.987 382.777 C 128.544 381.555,129.000 380.318,129.000 380.027 C 129.000 379.737,129.197 379.500,129.438 379.500 C 129.678 379.500,130.010 378.825,130.175 378.000 C 130.340 377.175,130.931 375.500,131.487 374.277 C 132.044 373.055,132.508 371.874,132.517 371.652 C 132.526 371.431,132.969 370.350,133.500 369.250 C 134.031 368.150,134.474 366.856,134.483 366.375 C 134.492 365.894,134.703 365.500,134.950 365.500 C 135.198 365.500,135.670 364.375,136.000 363.000 C 136.330 361.625,136.760 360.500,136.955 360.500 C 137.151 360.500,137.599 359.375,137.952 358.000 C 138.304 356.625,138.772 355.500,138.991 355.500 C 139.210 355.500,139.533 354.729,139.710 353.786 C 139.887 352.844,140.207 352.000,140.421 351.911 C 140.635 351.823,141.157 350.512,141.582 349.000 L 142.354 346.250 139.225 346.250 C 137.504 346.250,136.193 346.407,136.311 346.599 M349.385 369.715 C 349.474 385.171,349.346 393.354,349.010 393.690 C 348.729 393.971,348.500 395.156,348.500 396.325 C 348.500 398.944,347.560 403.500,347.019 403.500 C 346.800 403.500,346.342 404.175,346.000 405.000 C 345.658 405.825,345.197 406.500,344.975 406.500 C 344.753 406.500,344.177 406.894,343.695 407.375 C 342.598 408.471,333.978 408.685,333.625 407.625 C 333.005 405.765,331.588 407.063,331.421 409.644 C 331.225 412.668,330.712 412.391,337.276 412.806 C 344.521 413.264,350.659 409.967,351.742 405.037 C 351.928 404.192,352.254 403.500,352.466 403.500 C 353.606 403.500,354.000 395.295,354.000 371.577 L 354.000 346.597 351.625 346.423 L 349.250 346.250 349.385 369.715 M183.403 351.502 C 184.719 352.193,185.458 352.888,185.304 353.291 C 185.153 353.683,185.313 353.849,185.698 353.701 C 186.435 353.418,188.665 356.125,189.239 358.000 C 189.450 358.688,189.829 359.509,190.081 359.825 C 191.573 361.696,191.510 377.913,190.009 378.414 C 189.729 378.507,189.499 378.958,189.498 379.417 C 189.494 381.466,185.639 386.078,183.329 386.798 C 182.736 386.983,182.089 387.386,181.893 387.692 C 181.389 388.480,169.590 388.454,169.102 387.665 C 168.903 387.343,168.152 386.932,167.434 386.752 C 164.704 386.066,160.567 380.429,159.802 376.352 C 158.890 371.490,159.782 359.000,161.041 359.000 C 161.294 359.000,161.500 358.708,161.500 358.352 C 161.500 357.995,161.894 357.179,162.375 356.538 C 163.789 354.656,166.000 352.322,166.000 352.712 C 166.000 352.909,166.354 352.718,166.786 352.286 C 167.218 351.854,167.893 351.500,168.286 351.500 C 168.679 351.500,169.000 351.291,169.000 351.035 C 169.000 349.541,180.372 349.910,183.403 351.502 M83.297 373.085 C 82.809 379.559,78.774 387.000,75.752 387.000 C 75.384 387.000,74.990 387.281,74.875 387.625 C 74.520 388.693,64.907 388.476,63.805 387.375 C 63.323 386.894,62.742 386.500,62.514 386.500 C 61.425 386.500,60.000 382.842,60.000 380.048 C 60.000 375.376,62.116 372.391,65.926 371.691 C 66.929 371.507,67.873 371.167,68.024 370.937 C 68.174 370.707,71.043 370.244,74.399 369.908 C 77.754 369.573,80.500 369.119,80.500 368.899 C 80.500 368.680,81.207 368.500,82.072 368.500 L 83.643 368.500 83.297 373.085 M296.795 373.112 C 296.604 375.648,296.262 377.842,296.036 377.987 C 295.810 378.132,295.474 378.949,295.289 379.803 C 294.834 381.902,291.215 386.500,290.018 386.500 C 289.773 386.500,289.178 386.894,288.697 387.375 C 287.985 388.087,286.926 388.250,283.002 388.250 C 279.078 388.250,278.018 388.087,277.305 387.375 C 276.823 386.894,276.242 386.500,276.014 386.500 C 275.785 386.500,275.127 385.700,274.549 384.721 C 273.421 382.809,272.992 376.000,274.000 376.000 C 274.275 376.000,274.500 375.683,274.500 375.294 C 274.500 374.249,277.238 372.136,279.113 371.735 C 280.013 371.542,280.994 371.189,281.292 370.950 C 281.591 370.710,284.572 370.241,287.917 369.906 C 291.263 369.572,294.000 369.119,294.000 368.899 C 294.000 368.680,294.707 368.500,295.572 368.500 L 297.143 368.500 296.795 373.112 M322.125 385.972 C 320.915 386.981,320.459 391.000,321.553 391.000 C 321.858 391.000,321.998 391.284,321.865 391.631 C 321.381 392.893,326.754 392.723,327.950 391.438 C 331.430 387.704,326.074 382.678,322.125 385.972 " stroke="none" fill="#ffffff" fill-rule="evenodd"></path>
	</g>
</svg>